# xmcd
#
# Track frame offsets: 
#        150
#        14004
#        29117
#        40777
#        61387
#        84764
#        99487
#        116507
#        130688
#        158361
#
# Disc length: 2346 seconds
#
# Revision: 1
# Processed by: cddbd v1.5.2PL0 Copyright (c) Steve Scherf et al.
# Submitted via: ExactAudioCopy v0.99pb5
#
DISCID=7309280a
DTITLE=Shawn Starski - Shawn Starski
DYEAR=2012
DGENRE=Blues Rock
TTITLE0=Sea Of Faces
TTITLE1=Was It You
TTITLE2=Dirty Deal
TTITLE3=For Us
TTITLE4=Cry Baby
TTITLE5=How It Come To Be
TTITLE6=The Truth
TTITLE7=Means Nothing Now
TTITLE8=Hallows Eve
TTITLE9=Sweet Cherry Rose
EXTD=
EXTT0=
EXTT1=
EXTT2=
EXTT3=
EXTT4=
EXTT5=
EXTT6=
EXTT7=
EXTT8=
EXTT9=
PLAYORDER=
